<?xml version="1.0" standalone="no"?>
<!DOCTYPE svg PUBLIC "-//W3C//DTD SVG 20010904//EN"
 "http://www.w3.org/TR/2001/REC-SVG-20010904/DTD/svg10.dtd">
<svg version="1.0" xmlns="http://www.w3.org/2000/svg"
 width="700.000000pt" height="700.000000pt" viewBox="0 0 700.000000 700.000000"
 preserveAspectRatio="xMidYMid meet">
<metadata>
Created by potrace 1.11, written by Peter Selinger 2001-2013
</metadata>
<g transform="translate(0.000000,700.000000) scale(0.100000,-0.100000)"
fill="#000000" stroke="none">
<path d="M585 6984 c-92 -20 -236 -89 -308 -149 -121 -99 -212 -239 -253 -390
-18 -68 -19 -156 -19 -2955 l0 -2885 27 -80 c71 -210 199 -356 393 -450 167
-81 -103 -75 3105 -72 l2865 2 70 24 c278 93 434 261 523 562 11 38 13 5725 1
5792 -25 153 -92 280 -209 397 -92 92 -181 147 -315 192 l-70 23 -2870 2
c-2510 1 -2879 0 -2940 -13z"/>
</g>
</svg>
